<?xml version="1.0" encoding="UTF-8"?>
<svg xmlns="http://www.w3.org/2000/svg" width="24" height="24" viewBox="0 0 24 24" fill="none">
  <path d="M10.3639 3.00001C9.38967 2.98866 8.42289 3.17074 7.51955 3.53569C6.61621 3.90065 5.79428 4.44124 5.10136 5.12613C4.40844 5.81102 3.85831 6.6266 3.48285 7.52562C3.10739 8.42465 2.91406 9.38924 2.91406 10.3635C2.91406 11.3378 3.10739 12.3024 3.48285 13.2014C3.85831 14.1004 4.40844 14.916 5.10136 15.6009C5.79428 16.2858 6.61621 16.8264 7.51955 17.1913C8.42289 17.5563 9.38967 17.7384 10.3639 17.727C12.3019 17.7044 14.1529 16.9187 15.5154 15.5402C16.8779 14.1617 17.6421 12.3017 17.6421 10.3635C17.6421 8.42532 16.8779 6.56528 15.5154 5.18681C14.1529 3.80834 12.3019 3.0226 10.3639 3.00001Z" stroke="white" stroke-miterlimit="10"></path>
  <path d="M15.8569 15.858L20.9999 21.001" stroke="white" stroke-miterlimit="10" stroke-linecap="round"></path>
</svg>
