<?xml version="1.0" encoding="UTF-8"?>
<svg xmlns="http://www.w3.org/2000/svg" width="22" height="22" viewBox="0 0 22 22" fill="none">
  <g clip-path="url(#clip0_197_501)">
    <path d="M16.2708 0.916626C13.8306 0.916626 11.8151 3.18323 11 4.25298C10.1849 3.18323 8.16943 0.916626 5.72915 0.916626C2.57009 0.916626 0 3.82106 0 7.3906C0 9.33807 0.773008 11.153 2.12605 12.3951C2.14573 12.4292 2.16992 12.4605 2.19811 12.4887L10.6764 20.9495C10.7659 21.0385 10.8827 21.0833 11 21.0833C11.1173 21.0833 11.2345 21.0385 11.3241 20.949L20.0843 12.1919L20.1747 12.1042C20.2464 12.0366 20.3171 11.9681 20.3963 11.8804C20.4294 11.8477 20.4567 11.811 20.4777 11.7712C21.4602 10.5681 22 9.01624 22 7.3906C22 3.82106 19.43 0.916626 16.2708 0.916626ZM19.715 11.2556C19.7025 11.2703 19.6909 11.286 19.6806 11.3021C19.6376 11.3513 19.5906 11.3947 19.5441 11.4391L10.9996 19.9773L2.95054 11.9444C2.92458 11.8933 2.88832 11.8468 2.84402 11.8079C1.61893 10.7381 0.916652 9.12813 0.916652 7.3906C0.916652 4.32637 3.0754 1.83332 5.72915 1.83332C8.35295 1.83332 10.5922 5.25561 10.6146 5.29007C10.7838 5.55145 11.2162 5.55145 11.3854 5.29007C11.4078 5.25561 13.647 1.83332 16.2708 1.83332C18.9246 1.83332 21.0833 4.32641 21.0833 7.3906C21.0833 8.83452 20.5972 10.2073 19.715 11.2556Z" fill="white"></path>
  </g>
  <defs>
    <clipPath id="clip0_197_501">
      <rect width="22" height="22" fill="white"></rect>
    </clipPath>
  </defs>
</svg>
