<svg xmlns="http://www.w3.org/2000/svg" width="59.999" height="18.001" viewBox="0 0 59.999 18.001">
  <g id="Group_1979" data-name="Group 1979" transform="translate(0 18.001) rotate(-90)" opacity="0.4">
    <path id="Path_9975" data-name="Path 9975" d="M2,4A2,2,0,0,0,4,2,2.07,2.07,0,0,0,2,0,2,2,0,0,0,0,2,1.936,1.936,0,0,0,2,4Z" transform="translate(14.001 0)" fill="#82868e"/>
    <path id="Path_9976" data-name="Path 9976" d="M2,4A2,2,0,1,0,0,2,2,2,0,0,0,2,4Z" transform="translate(14.001 14)" fill="#82868e"/>
    <path id="Path_9977" data-name="Path 9977" d="M2,4A2,2,0,1,0,0,2,2,2,0,0,0,2,4Z" transform="translate(14.001 28)" fill="#82868e"/>
    <path id="Path_9978" data-name="Path 9978" d="M2,4A2,2,0,1,0,0,2,1.936,1.936,0,0,0,2,4Z" transform="translate(14.001 42.001)" fill="#82868e"/>
    <path id="Path_9979" data-name="Path 9979" d="M2,4A2,2,0,1,0,0,2,1.936,1.936,0,0,0,2,4Z" transform="translate(14.001 55.999)" fill="#82868e"/>
    <path id="Path_9983" data-name="Path 9983" d="M2,4A2,2,0,0,0,2,0,2.07,2.07,0,0,0,0,2,2,2,0,0,0,2,4Z" transform="translate(0 0)" fill="#82868e"/>
    <path id="Path_9984" data-name="Path 9984" d="M2,4A2,2,0,1,0,0,2,2.07,2.07,0,0,0,2,4Z" transform="translate(0 14)" fill="#82868e"/>
    <path id="Path_9985" data-name="Path 9985" d="M2,4A2,2,0,1,0,0,2,2.07,2.07,0,0,0,2,4Z" transform="translate(0 28)" fill="#82868e"/>
    <path id="Path_9986" data-name="Path 9986" d="M2,4A2,2,0,1,0,0,2,2,2,0,0,0,2,4Z" transform="translate(0 42.001)" fill="#82868e"/>
    <path id="Path_9987" data-name="Path 9987" d="M2,4A2,2,0,1,0,0,2,2,2,0,0,0,2,4Z" transform="translate(0 55.999)" fill="#82868e"/>
  </g>
</svg>
