<svg xmlns="http://www.w3.org/2000/svg" width="40" height="40" viewBox="0 0 40 40">
  <g id="Group_41442" data-name="Group 41442" transform="translate(-318 -5801)">
    <rect id="Rectangle_20476" data-name="Rectangle 20476" width="40" height="40" transform="translate(318 5801)" fill="none"/>
    <path id="Subtraction_49" data-name="Subtraction 49" d="M7811.752,23759.922h-17.1v-2.1h2.3c.023,0,.047,0,.072,0s.055,0,.083,0a2.537,2.537,0,0,0,1.807-.752,2.565,2.565,0,0,0,.746-1.961v-4.2l-.006-.006a5.51,5.51,0,0,0-.083-.824l-.03-.166h-.167c-8.094-.029-10.966-4.289-10.966-7.926a4.176,4.176,0,0,1,3.292-4.078l.221-.047-.077-.215a22.833,22.833,0,0,1-.865-3.084,3.488,3.488,0,0,1,.721-2.928,3.578,3.578,0,0,1,2.779-1.324h17.454a3.559,3.559,0,0,1,2.779,1.324,3.513,3.513,0,0,1,.728,2.928,23.851,23.851,0,0,1-.871,3.084l-.078.215.227.047A4.192,4.192,0,0,1,7818,23742a7.034,7.034,0,0,1-2.427,5.3,9.557,9.557,0,0,1-3.381,1.873,16.583,16.583,0,0,1-5.158.752h-.167l-.03.166a6.239,6.239,0,0,0-.089.824v4.2a2.551,2.551,0,0,0,2.552,2.713c.027,0,.056,0,.084,0s.057,0,.083,0h2.284v2.1Zm-17.281-27.5a1.474,1.474,0,0,0-1.151.549,1.376,1.376,0,0,0-.292,1.18c.734,3.605,2.874,8.361,6,10.859a7.449,7.449,0,0,1,2.725,5.91v4.209a4.933,4.933,0,0,1-.584,2.4l-.161.3h4.389l-.161-.3a4.934,4.934,0,0,1-.584-2.4v-4.209a7.43,7.43,0,0,1,2.713-5.9c3.122-2.5,5.266-7.258,6-10.865a1.389,1.389,0,0,0-.292-1.18,1.481,1.481,0,0,0-1.157-.549h-17.448Zm-1.9,7.5a2.077,2.077,0,0,0-2.075,2.074,4.959,4.959,0,0,0,1.789,3.793,9.975,9.975,0,0,0,6.052,2l.436.029-.263-.346a4.608,4.608,0,0,0-.793-.816,18.588,18.588,0,0,1-4.89-6.613l-.054-.119Zm21.05,0h0l-.053.119a18.648,18.648,0,0,1-4.9,6.613,4.653,4.653,0,0,0-.787.816l-.262.346.429-.029a9.949,9.949,0,0,0,6.053-2,4.948,4.948,0,0,0,1.795-3.793,2.077,2.077,0,0,0-2.075-2.074Z" transform="translate(-7464.7 -17923.621)"/>
  </g>
</svg>
